<svg width="250" height="39" viewBox="0 0 250 39" fill="none" xmlns="http://www.w3.org/2000/svg">
<path d="M0 19.4672C0.485888 19.1715 0.901358 18.8616 1.24641 18.5377C1.5985 18.2138 1.88722 17.8546 2.11256 17.4603C2.3379 17.073 2.50338 16.6399 2.60901 16.1611C2.71464 15.6752 2.76745 15.1259 2.76745 14.5133V0.221818H6.11585V13.9112C6.11585 14.6435 6.08416 15.3125 6.02079 15.9181C5.95741 16.5167 5.85178 17.0659 5.7039 17.5659C5.56307 18.0729 5.36942 18.5377 5.12295 18.9602C4.88353 19.3827 4.58425 19.7841 4.22511 20.1644C3.87302 20.5446 3.45403 20.9108 2.96814 21.2629C2.4893 21.615 1.93299 21.9706 1.29922 22.3297L0 19.4672Z" fill="#130E0A"/>
<path d="M9.78114 0.221818H13.1295V9.31638C13.1295 10.0628 13.2316 10.7283 13.4359 11.3127C13.6401 11.8902 13.9429 12.3796 14.3443 12.781C14.7527 13.1824 15.2562 13.4887 15.8547 13.6999C16.4533 13.9041 17.1504 14.0063 17.9462 14.0063C18.7349 14.0063 19.4285 13.9041 20.027 13.6999C20.6326 13.4887 21.1361 13.1824 21.5375 12.781C21.9459 12.3796 22.2523 11.8902 22.4565 11.3127C22.6607 10.7283 22.7628 10.0628 22.7628 9.31638V0.221818H26.1112V9.71776C26.1112 10.8022 25.9281 11.7881 25.5619 12.6753C25.1958 13.5626 24.6641 14.3231 23.967 14.9569C23.2698 15.5907 22.4142 16.0801 21.4002 16.4251C20.3932 16.7702 19.2419 16.9427 17.9462 16.9427C16.6505 16.9427 15.4956 16.7702 14.4816 16.4251C13.4746 16.0801 12.6225 15.5907 11.9254 14.9569C11.2282 14.3231 10.6966 13.5626 10.3304 12.6753C9.96423 11.7881 9.78114 10.8022 9.78114 9.71776V0.221818Z" fill="#130E0A"/>
<path d="M29.5758 0.221818H32.9242V9.31638C32.9242 10.0628 33.0263 10.7283 33.2305 11.3127C33.4347 11.8902 33.7375 12.3796 34.1389 12.781C34.5473 13.1824 35.0508 13.4887 35.6494 13.6999C36.248 13.9041 36.9451 14.0063 37.7408 14.0063C38.5295 14.0063 39.2231 13.9041 39.8217 13.6999C40.4273 13.4887 40.9308 13.1824 41.3322 12.781C41.7406 12.3796 42.0469 11.8902 42.2511 11.3127C42.4554 10.7283 42.5575 10.0628 42.5575 9.31638V0.221818H45.9059V9.71776C45.9059 10.8022 45.7228 11.7881 45.3566 12.6753C44.9904 13.5626 44.4588 14.3231 43.7616 14.9569C43.0645 15.5907 42.2089 16.0801 41.1949 16.4251C40.1879 16.7702 39.0365 16.9427 37.7408 16.9427C36.4451 16.9427 35.2903 16.7702 34.2762 16.4251C33.2693 16.0801 32.4172 15.5907 31.72 14.9569C31.0229 14.3231 30.4912 13.5626 30.1251 12.6753C29.7589 11.7881 29.5758 10.8022 29.5758 9.71776V0.221818Z" fill="#130E0A"/>
<path d="M49.9725 0.221818H53.3209L63.6091 5.60884V0.221818H66.9575V16.7315H63.6091V9.15794L53.3209 3.8026V16.7315H49.9725V0.221818Z" fill="#130E0A"/>
<path d="M113.803 8.37629C113.803 7.2003 114.025 6.10529 114.469 5.09126C114.913 4.07019 115.553 3.18644 116.391 2.44C117.236 1.68652 118.264 1.09501 119.476 0.665456C120.694 0.235902 122.071 0.0211256 123.606 0.0211256C124.951 0.0211256 126.183 0.158442 127.303 0.433074C128.429 0.700665 129.475 1.11261 130.44 1.66892L128.898 4.20399C128.609 4.01386 128.274 3.84485 127.894 3.69697C127.521 3.5491 127.12 3.42586 126.69 3.32728C126.268 3.22165 125.827 3.14067 125.37 3.08433C124.919 3.028 124.472 2.99983 124.028 2.99983C122.958 2.99983 122.004 3.13363 121.166 3.40122C120.328 3.66177 119.62 4.03146 119.043 4.51031C118.472 4.98211 118.036 5.54898 117.733 6.21092C117.437 6.86581 117.289 7.5876 117.289 8.37629C117.289 9.19314 117.444 9.9431 117.754 10.6262C118.064 11.3092 118.511 11.9007 119.095 12.4007C119.687 12.8936 120.405 13.2809 121.25 13.5626C122.102 13.8372 123.063 13.9746 124.134 13.9746C124.62 13.9746 125.102 13.9394 125.581 13.8689C126.06 13.7985 126.521 13.7035 126.965 13.5837C127.415 13.457 127.848 13.3091 128.264 13.1401C128.679 12.9641 129.067 12.7739 129.426 12.5697L130.968 15.1048C130.067 15.6822 129.024 16.1364 127.841 16.4674C126.658 16.7913 125.401 16.9533 124.07 16.9533C122.373 16.9533 120.884 16.735 119.602 16.2984C118.321 15.8547 117.25 15.2491 116.391 14.4816C115.532 13.707 114.884 12.7986 114.448 11.7564C114.018 10.7071 113.803 9.58045 113.803 8.37629Z" fill="#130E0A"/>
<path d="M133.693 8.4291C133.693 7.18269 133.922 6.04191 134.38 5.00676C134.837 3.97161 135.478 3.08433 136.302 2.34494C137.133 1.5985 138.126 1.02107 139.281 0.612642C140.443 0.204214 141.728 0 143.136 0C144.538 0 145.819 0.204214 146.981 0.612642C148.143 1.02107 149.136 1.5985 149.96 2.34494C150.791 3.08433 151.435 3.97161 151.893 5.00676C152.351 6.04191 152.579 7.18269 152.579 8.4291C152.579 9.68255 152.351 10.8339 151.893 11.8831C151.435 12.9253 150.791 13.8232 149.96 14.5766C149.136 15.3301 148.143 15.9181 146.981 16.3406C145.819 16.7561 144.538 16.9638 143.136 16.9638C141.728 16.9638 140.443 16.7561 139.281 16.3406C138.126 15.9181 137.133 15.3301 136.302 14.5766C135.478 13.8232 134.837 12.9253 134.38 11.8831C133.922 10.8339 133.693 9.68255 133.693 8.4291ZM137.042 8.4291C137.042 9.28117 137.193 10.0487 137.496 10.7318C137.806 11.4149 138.232 11.9993 138.774 12.4852C139.323 12.9641 139.967 13.3338 140.707 13.5943C141.453 13.8549 142.263 13.9851 143.136 13.9851C144.009 13.9851 144.816 13.8549 145.555 13.5943C146.302 13.3338 146.946 12.9641 147.488 12.4852C148.03 11.9993 148.456 11.4149 148.766 10.7318C149.076 10.0487 149.231 9.28117 149.231 8.4291C149.231 7.57704 149.076 6.813 148.766 6.13698C148.456 5.46096 148.03 4.89057 147.488 4.42581C146.946 3.954 146.302 3.59487 145.555 3.3484C144.816 3.10194 144.009 2.97871 143.136 2.97871C142.263 2.97871 141.453 3.10194 140.707 3.3484C139.967 3.59487 139.323 3.954 138.774 4.42581C138.232 4.89057 137.806 5.46096 137.496 6.13698C137.193 6.813 137.042 7.57704 137.042 8.4291Z" fill="#130E0A"/>
<path d="M156.276 0.221818H159.625L169.913 5.60884V0.221818H173.261V16.7315H169.913V9.15794L159.625 3.8026V16.7315H156.276V0.221818Z" fill="#130E0A"/>
<path d="M176.927 8.37629C176.927 7.2003 177.148 6.10529 177.592 5.09126C178.036 4.07019 178.677 3.18644 179.515 2.44C180.36 1.68652 181.388 1.09501 182.599 0.665456C183.817 0.235902 185.194 0.0211256 186.729 0.0211256C188.074 0.0211256 189.306 0.158442 190.426 0.433074C191.553 0.700665 192.598 1.11261 193.563 1.66892L192.021 4.20399C191.732 4.01386 191.398 3.84485 191.017 3.69697C190.644 3.5491 190.243 3.42586 189.813 3.32728C189.391 3.22165 188.951 3.14067 188.493 3.08433C188.042 3.028 187.595 2.99983 187.151 2.99983C186.081 2.99983 185.127 3.13363 184.289 3.40122C183.451 3.66177 182.743 4.03146 182.166 4.51031C181.595 4.98211 181.159 5.54898 180.856 6.21092C180.56 6.86581 180.412 7.5876 180.412 8.37629C180.412 9.19314 180.567 9.9431 180.877 10.6262C181.187 11.3092 181.634 11.9007 182.219 12.4007C182.81 12.8936 183.528 13.2809 184.373 13.5626C185.225 13.8372 186.187 13.9746 187.257 13.9746C187.743 13.9746 188.225 13.9394 188.704 13.8689C189.183 13.7985 189.644 13.7035 190.088 13.5837C190.539 13.457 190.972 13.3091 191.387 13.1401C191.803 12.9641 192.19 12.7739 192.549 12.5697L194.091 15.1048C193.19 15.6822 192.148 16.1364 190.965 16.4674C189.782 16.7913 188.525 16.9533 187.194 16.9533C185.497 16.9533 184.007 16.735 182.726 16.2984C181.444 15.8547 180.374 15.2491 179.515 14.4816C178.655 13.707 178.008 12.7986 177.571 11.7564C177.141 10.7071 176.927 9.58045 176.927 8.37629Z" fill="#130E0A"/>
<path d="M215.787 0.221818H224.491C225.758 0.221818 226.857 0.359135 227.786 0.633767C228.716 0.9084 229.487 1.30626 230.1 1.82736C230.712 2.34142 231.167 2.97166 231.462 3.7181C231.765 4.46454 231.917 5.30604 231.917 6.24261C231.917 7.12284 231.769 7.93617 231.473 8.68261C231.177 9.42905 230.723 10.0769 230.11 10.6262C229.505 11.1684 228.737 11.5944 227.808 11.9043C226.878 12.2071 225.78 12.3585 224.512 12.3585L219.136 12.3479V16.7315H215.787V0.221818ZM224.575 9.45369C225.209 9.45369 225.762 9.37975 226.234 9.23187C226.713 9.07695 227.11 8.86218 227.427 8.58754C227.751 8.30587 227.991 7.96786 228.146 7.57352C228.308 7.17213 228.389 6.72849 228.389 6.24261C228.389 5.26379 228.068 4.50327 227.427 3.96104C226.794 3.41178 225.843 3.13715 224.575 3.13715H219.136V9.45369H224.575Z" fill="#130E0A"/>
<path d="M240.557 3.15827H234.462V0.221818H250V3.15827H243.905V16.7315H240.557V3.15827Z" fill="#130E0A"/>
<path d="M72.2528 0H86.314V3.02856H72.2528V0Z" fill="#130E0A"/>
<path d="M72.2528 13.4122H86.314V16.4407H72.2528V13.4122Z" fill="#130E0A"/>
<path d="M72.2528 6.05713H81.7711V9.08569H72.2528V6.05713Z" fill="#130E0A"/>
<path d="M90.8569 0H104.918V3.02856H90.8569V0Z" fill="#130E0A"/>
<path d="M90.8569 13.4122H104.918V16.4407H90.8569V13.4122Z" fill="#130E0A"/>
<path d="M90.8569 6.05713H100.375V9.08569H90.8569V6.05713Z" fill="#130E0A"/>
<path d="M197.722 0.432678H211.783V3.46124H197.722V0.432678Z" fill="#130E0A"/>
<path d="M197.722 13.8448H211.783V16.8734H197.722V13.8448Z" fill="#130E0A"/>
<path d="M197.722 6.48981H207.24V9.51837H197.722V6.48981Z" fill="#130E0A"/>
<path d="M59.8281 25.8418H63.1855C64.166 25.8418 65.0176 25.9473 65.7402 26.1582C66.4629 26.3691 67.0605 26.6719 67.5332 27.0664C68.0098 27.457 68.3633 27.9336 68.5938 28.4961C68.8281 29.0547 68.9453 29.6836 68.9453 30.3828C68.9453 31.0469 68.8301 31.6621 68.5996 32.2285C68.3691 32.791 68.0176 33.2793 67.5449 33.6934C67.0723 34.1035 66.4746 34.4258 65.752 34.6602C65.0293 34.8906 64.1777 35.0059 63.1973 35.0059L59.8281 35V25.8418ZM63.6426 33.3945C64.1973 33.3945 64.6836 33.3242 65.1016 33.1836C65.5195 33.0391 65.8672 32.8359 66.1445 32.5742C66.4258 32.3125 66.6367 31.9961 66.7773 31.625C66.918 31.2539 66.9883 30.8398 66.9883 30.3828C66.9883 29.9336 66.918 29.5293 66.7773 29.1699C66.6367 28.8066 66.4258 28.5 66.1445 28.25C65.8672 27.9961 65.5195 27.8008 65.1016 27.6641C64.6836 27.5273 64.1973 27.459 63.6426 27.459H61.6855V33.3945H63.6426Z" fill="black"/>
<path d="M71.5059 27.1426C71.334 27.1426 71.1777 27.1191 71.0371 27.0723C70.9004 27.0215 70.7832 26.9551 70.6855 26.873C70.5879 26.7871 70.5117 26.6895 70.457 26.5801C70.4062 26.4668 70.3809 26.3477 70.3809 26.2227C70.3809 26.0938 70.4062 25.9746 70.457 25.8652C70.5117 25.752 70.5879 25.6543 70.6855 25.5723C70.7832 25.4902 70.9004 25.4258 71.0371 25.3789C71.1777 25.3281 71.334 25.3027 71.5059 25.3027C71.6816 25.3027 71.8379 25.3281 71.9746 25.3789C72.1152 25.4258 72.2344 25.4902 72.332 25.5723C72.4297 25.6543 72.5039 25.752 72.5547 25.8652C72.6094 25.9746 72.6367 26.0938 72.6367 26.2227C72.6367 26.3477 72.6094 26.4668 72.5547 26.5801C72.5039 26.6895 72.4297 26.7871 72.332 26.873C72.2344 26.9551 72.1152 27.0215 71.9746 27.0723C71.8379 27.1191 71.6816 27.1426 71.5059 27.1426ZM70.6387 28.0859H72.373V35H70.6387V28.0859Z" fill="black"/>
<path d="M75.6836 36.1719C75.9023 36.25 76.125 36.3145 76.3516 36.3652C76.5781 36.4199 76.7969 36.4629 77.0078 36.4941C77.2227 36.5293 77.4277 36.5527 77.623 36.5645C77.8184 36.5801 77.9922 36.5879 78.1445 36.5879C78.6055 36.5879 79.0059 36.5312 79.3457 36.418C79.6895 36.3086 79.9746 36.1602 80.2012 35.9727C80.4316 35.7852 80.6035 35.5664 80.7168 35.3164C80.8301 35.0703 80.8867 34.8086 80.8867 34.5312V34.2324C80.7383 34.334 80.5645 34.4316 80.3652 34.5254C80.166 34.6191 79.9473 34.7012 79.709 34.7715C79.4707 34.8418 79.2168 34.8984 78.9473 34.9414C78.6816 34.9844 78.4062 35.0059 78.1211 35.0059C77.5547 35.0059 77.0312 34.9219 76.5508 34.7539C76.0703 34.582 75.6543 34.3438 75.3027 34.0391C74.9512 33.7305 74.6758 33.3613 74.4766 32.9316C74.2812 32.502 74.1836 32.0254 74.1836 31.502C74.1836 30.9668 74.2871 30.4824 74.4941 30.0488C74.7012 29.6113 74.9863 29.2383 75.3496 28.9297C75.7168 28.6211 76.1504 28.3828 76.6504 28.2148C77.1504 28.0469 77.6934 27.9629 78.2793 27.9629C78.5293 27.9629 78.7773 27.9785 79.0234 28.0098C79.2695 28.041 79.5039 28.084 79.7266 28.1387C79.9531 28.1934 80.1641 28.2598 80.3594 28.3379C80.5586 28.4121 80.7344 28.4941 80.8867 28.584V28.0859H82.6211V34.209C82.6211 34.8379 82.5254 35.3945 82.334 35.8789C82.1426 36.3633 81.8613 36.7695 81.4902 37.0977C81.123 37.4297 80.666 37.6797 80.1191 37.8477C79.5723 38.0195 78.9453 38.1055 78.2383 38.1055C77.9844 38.1055 77.7207 38.0938 77.4473 38.0703C77.1738 38.0508 76.8984 38.0195 76.6211 37.9766C76.3477 37.9375 76.0762 37.8887 75.8066 37.8301C75.541 37.7754 75.2852 37.7109 75.0391 37.6367L75.6836 36.1719ZM76.0059 31.4844C76.0059 31.7617 76.0605 32.0234 76.1699 32.2695C76.2832 32.5117 76.4434 32.7246 76.6504 32.9082C76.8574 33.0879 77.1074 33.2305 77.4004 33.3359C77.6934 33.4375 78.0234 33.4883 78.3906 33.4883C78.6289 33.4883 78.8652 33.4668 79.0996 33.4238C79.3379 33.377 79.5645 33.3125 79.7793 33.2305C79.998 33.1484 80.2012 33.0488 80.3887 32.9316C80.5801 32.8145 80.7461 32.6836 80.8867 32.5391V30.2598C80.7109 30.1191 80.5254 30 80.3301 29.9023C80.1348 29.8047 79.9355 29.7246 79.7324 29.6621C79.5293 29.5996 79.3242 29.5547 79.1172 29.5273C78.9102 29.4961 78.709 29.4805 78.5137 29.4805C78.1152 29.4805 77.7598 29.5332 77.4473 29.6387C77.1387 29.7441 76.877 29.8887 76.6621 30.0723C76.4512 30.252 76.2891 30.4629 76.1758 30.7051C76.0625 30.9473 76.0059 31.207 76.0059 31.4844Z" fill="black"/>
<path d="M85.5098 27.1426C85.3379 27.1426 85.1816 27.1191 85.041 27.0723C84.9043 27.0215 84.7871 26.9551 84.6895 26.873C84.5918 26.7871 84.5156 26.6895 84.4609 26.5801C84.4102 26.4668 84.3848 26.3477 84.3848 26.2227C84.3848 26.0938 84.4102 25.9746 84.4609 25.8652C84.5156 25.752 84.5918 25.6543 84.6895 25.5723C84.7871 25.4902 84.9043 25.4258 85.041 25.3789C85.1816 25.3281 85.3379 25.3027 85.5098 25.3027C85.6855 25.3027 85.8418 25.3281 85.9785 25.3789C86.1191 25.4258 86.2383 25.4902 86.3359 25.5723C86.4336 25.6543 86.5078 25.752 86.5586 25.8652C86.6133 25.9746 86.6406 26.0938 86.6406 26.2227C86.6406 26.3477 86.6133 26.4668 86.5586 26.5801C86.5078 26.6895 86.4336 26.7871 86.3359 26.873C86.2383 26.9551 86.1191 27.0215 85.9785 27.0723C85.8418 27.1191 85.6855 27.1426 85.5098 27.1426ZM84.6426 28.0859H86.377V35H84.6426V28.0859Z" fill="black"/>
<path d="M89.6465 29.3867H87.9766V28.0859H89.6465V25.9355H91.3809V28.0859H93.0508V29.3867H91.3809V35H89.6465V29.3867Z" fill="black"/>
<path d="M94.2637 32.8203C94.2637 32.4883 94.3359 32.1855 94.4805 31.9121C94.625 31.6387 94.8418 31.4043 95.1309 31.209C95.4199 31.0098 95.7793 30.8574 96.209 30.752C96.6426 30.6426 97.1465 30.5879 97.7207 30.5879C98.1465 30.5879 98.5938 30.6191 99.0625 30.6816C99.5352 30.7441 100.021 30.8398 100.521 30.9688C100.502 30.75 100.436 30.5488 100.322 30.3652C100.209 30.1777 100.051 30.0176 99.8477 29.8848C99.6484 29.748 99.4062 29.6426 99.1211 29.5684C98.8398 29.4941 98.5195 29.457 98.1602 29.457C97.9648 29.457 97.75 29.4688 97.5156 29.4922C97.2812 29.5156 97.0391 29.5508 96.7891 29.5977C96.5391 29.6445 96.291 29.7031 96.0449 29.7734C95.8027 29.8438 95.5762 29.9277 95.3652 30.0254L94.8379 28.6016C95.0996 28.5078 95.3789 28.4219 95.6758 28.3438C95.9766 28.2656 96.2832 28.1992 96.5957 28.1445C96.9082 28.0859 97.2207 28.041 97.5332 28.0098C97.8457 27.9785 98.1484 27.9629 98.4414 27.9629C99.7344 27.9629 100.695 28.293 101.324 28.9531C101.953 29.6133 102.268 30.625 102.268 31.9883V35H100.533V34.3496C100.354 34.4551 100.156 34.5547 99.9414 34.6484C99.7305 34.7422 99.5 34.8242 99.25 34.8945C99 34.9648 98.7305 35.0195 98.4414 35.0586C98.1562 35.1016 97.8535 35.123 97.5332 35.123C96.9941 35.123 96.5195 35.0645 96.1094 34.9473C95.7031 34.8301 95.3633 34.668 95.0898 34.4609C94.8164 34.2539 94.6094 34.0117 94.4688 33.7344C94.332 33.4531 94.2637 33.1484 94.2637 32.8203ZM96.0918 32.7617C96.0918 32.875 96.1211 32.9844 96.1797 33.0898C96.2383 33.1914 96.332 33.2832 96.4609 33.3652C96.5898 33.4434 96.7539 33.5078 96.9531 33.5586C97.1562 33.6055 97.4004 33.6289 97.6855 33.6289C97.9902 33.6289 98.2852 33.6016 98.5703 33.5469C98.8555 33.4922 99.1211 33.4199 99.3672 33.3301C99.6133 33.2402 99.8359 33.1367 100.035 33.0195C100.234 32.9023 100.4 32.7812 100.533 32.6562V32.3516C100.268 32.2773 100.004 32.2148 99.7422 32.1641C99.4844 32.1133 99.2363 32.0742 98.998 32.0469C98.7637 32.0156 98.541 31.9941 98.3301 31.9824C98.123 31.9707 97.9414 31.9648 97.7852 31.9648C97.4609 31.9648 97.1914 31.9863 96.9766 32.0293C96.7617 32.0723 96.5879 32.1309 96.4551 32.2051C96.3223 32.2754 96.2285 32.3594 96.1738 32.457C96.1191 32.5547 96.0918 32.6562 96.0918 32.7617Z" fill="black"/>
<path d="M104.611 25.2793H106.346V35H104.611V25.2793Z" fill="black"/>
<path d="M113.201 32.2754C113.533 32.4629 113.869 32.6328 114.209 32.7852C114.553 32.9336 114.908 33.0605 115.275 33.166C115.643 33.2676 116.027 33.3457 116.43 33.4004C116.836 33.4551 117.268 33.4824 117.725 33.4824C118.275 33.4824 118.744 33.4473 119.131 33.377C119.518 33.3027 119.832 33.2031 120.074 33.0781C120.32 32.9492 120.498 32.7969 120.607 32.6211C120.721 32.4453 120.777 32.2539 120.777 32.0469C120.777 31.7148 120.639 31.4531 120.361 31.2617C120.084 31.0664 119.656 30.9688 119.078 30.9688C118.824 30.9688 118.557 30.9863 118.275 31.0215C117.994 31.0527 117.709 31.0879 117.42 31.127C117.135 31.166 116.852 31.2031 116.57 31.2383C116.293 31.2695 116.031 31.2852 115.785 31.2852C115.375 31.2852 114.98 31.2324 114.602 31.127C114.227 31.0215 113.893 30.8633 113.6 30.6523C113.311 30.4414 113.08 30.1777 112.908 29.8613C112.736 29.5449 112.65 29.1758 112.65 28.7539C112.65 28.5039 112.684 28.2559 112.75 28.0098C112.82 27.7637 112.93 27.5293 113.078 27.3066C113.23 27.0801 113.426 26.8711 113.664 26.6797C113.902 26.4844 114.189 26.3164 114.525 26.1758C114.865 26.0352 115.256 25.9258 115.697 25.8477C116.143 25.7656 116.648 25.7246 117.215 25.7246C117.625 25.7246 118.037 25.748 118.451 25.7949C118.865 25.8379 119.268 25.9004 119.658 25.9824C120.053 26.0645 120.432 26.1641 120.795 26.2812C121.158 26.3945 121.496 26.5215 121.809 26.6621L120.994 28.1621C120.736 28.0488 120.459 27.9453 120.162 27.8516C119.865 27.7539 119.555 27.6699 119.23 27.5996C118.906 27.5293 118.57 27.4746 118.223 27.4355C117.879 27.3926 117.527 27.3711 117.168 27.3711C116.656 27.3711 116.234 27.4082 115.902 27.4824C115.574 27.5566 115.312 27.6523 115.117 27.7695C114.922 27.8828 114.785 28.0117 114.707 28.1562C114.633 28.2969 114.596 28.4375 114.596 28.5781C114.596 28.8516 114.719 29.0762 114.965 29.252C115.211 29.4238 115.586 29.5098 116.09 29.5098C116.293 29.5098 116.525 29.4961 116.787 29.4688C117.053 29.4375 117.33 29.4043 117.619 29.3691C117.912 29.334 118.209 29.3027 118.51 29.2754C118.814 29.2441 119.109 29.2285 119.395 29.2285C119.934 29.2285 120.41 29.2891 120.824 29.4102C121.242 29.5312 121.592 29.7051 121.873 29.9316C122.154 30.1543 122.367 30.4258 122.512 30.7461C122.656 31.0625 122.729 31.418 122.729 31.8125C122.729 32.3398 122.605 32.8105 122.359 33.2246C122.117 33.6348 121.77 33.9824 121.316 34.2676C120.867 34.5488 120.324 34.7637 119.688 34.9121C119.051 35.0566 118.342 35.1289 117.561 35.1289C117.045 35.1289 116.541 35.0957 116.049 35.0293C115.557 34.9668 115.084 34.877 114.631 34.7598C114.182 34.6387 113.752 34.4961 113.342 34.332C112.936 34.1641 112.559 33.9805 112.211 33.7812L113.201 32.2754Z" fill="black"/>
<path d="M124.141 31.543C124.141 31.0469 124.24 30.582 124.439 30.1484C124.643 29.7148 124.93 29.3359 125.301 29.0117C125.676 28.6875 126.127 28.4316 126.654 28.2441C127.186 28.0566 127.781 27.9629 128.441 27.9629C129.102 27.9629 129.695 28.0566 130.223 28.2441C130.754 28.4316 131.205 28.6875 131.576 29.0117C131.951 29.3359 132.238 29.7148 132.438 30.1484C132.641 30.582 132.742 31.0469 132.742 31.543C132.742 32.0391 132.641 32.5039 132.438 32.9375C132.238 33.3711 131.951 33.75 131.576 34.0742C131.205 34.3984 130.754 34.6543 130.223 34.8418C129.695 35.0293 129.102 35.123 128.441 35.123C127.781 35.123 127.186 35.0293 126.654 34.8418C126.127 34.6543 125.676 34.3984 125.301 34.0742C124.93 33.75 124.643 33.3711 124.439 32.9375C124.24 32.5039 124.141 32.0391 124.141 31.543ZM125.963 31.543C125.963 31.8203 126.018 32.084 126.127 32.334C126.24 32.5801 126.402 32.7988 126.613 32.9902C126.828 33.1777 127.088 33.3281 127.393 33.4414C127.701 33.5508 128.051 33.6055 128.441 33.6055C128.832 33.6055 129.18 33.5508 129.484 33.4414C129.793 33.3281 130.053 33.1777 130.264 32.9902C130.479 32.7988 130.641 32.5801 130.75 32.334C130.863 32.084 130.92 31.8203 130.92 31.543C130.92 31.2656 130.863 31.002 130.75 30.752C130.641 30.502 130.479 30.2832 130.264 30.0957C130.053 29.9043 129.793 29.7539 129.484 29.6445C129.18 29.5312 128.832 29.4746 128.441 29.4746C128.051 29.4746 127.701 29.5312 127.393 29.6445C127.088 29.7539 126.828 29.9043 126.613 30.0957C126.402 30.2832 126.24 30.502 126.127 30.752C126.018 31.002 125.963 31.2656 125.963 31.543Z" fill="black"/>
<path d="M134.541 25.2793H136.275V35H134.541V25.2793Z" fill="black"/>
<path d="M138.502 28.0801H140.23V31.4551C140.23 31.7754 140.266 32.0684 140.336 32.334C140.406 32.5957 140.525 32.8203 140.693 33.0078C140.865 33.1953 141.092 33.3418 141.373 33.4473C141.658 33.5488 142.012 33.5996 142.434 33.5996C142.633 33.5996 142.834 33.5781 143.037 33.5352C143.244 33.4922 143.441 33.4336 143.629 33.3594C143.816 33.2812 143.99 33.1895 144.15 33.084C144.314 32.9785 144.455 32.8633 144.572 32.7383V28.0801H146.307V35H144.572V34.4082C144.146 34.6621 143.719 34.8438 143.289 34.9531C142.859 35.0625 142.451 35.1172 142.064 35.1172C141.432 35.1172 140.889 35.041 140.436 34.8887C139.986 34.7363 139.617 34.5156 139.328 34.2266C139.043 33.9336 138.834 33.5762 138.701 33.1543C138.568 32.7285 138.502 32.2441 138.502 31.7012V28.0801Z" fill="black"/>
<path d="M149.553 29.3867H147.883V28.0859H149.553V25.9355H151.287V28.0859H152.957V29.3867H151.287V35H149.553V29.3867Z" fill="black"/>
<path d="M155.412 27.1426C155.24 27.1426 155.084 27.1191 154.943 27.0723C154.807 27.0215 154.689 26.9551 154.592 26.873C154.494 26.7871 154.418 26.6895 154.363 26.5801C154.312 26.4668 154.287 26.3477 154.287 26.2227C154.287 26.0938 154.312 25.9746 154.363 25.8652C154.418 25.752 154.494 25.6543 154.592 25.5723C154.689 25.4902 154.807 25.4258 154.943 25.3789C155.084 25.3281 155.24 25.3027 155.412 25.3027C155.588 25.3027 155.744 25.3281 155.881 25.3789C156.021 25.4258 156.141 25.4902 156.238 25.5723C156.336 25.6543 156.41 25.752 156.461 25.8652C156.516 25.9746 156.543 26.0938 156.543 26.2227C156.543 26.3477 156.516 26.4668 156.461 26.5801C156.41 26.6895 156.336 26.7871 156.238 26.873C156.141 26.9551 156.021 27.0215 155.881 27.0723C155.744 27.1191 155.588 27.1426 155.412 27.1426ZM154.545 28.0859H156.279V35H154.545V28.0859Z" fill="black"/>
<path d="M158.09 31.543C158.09 31.0469 158.189 30.582 158.389 30.1484C158.592 29.7148 158.879 29.3359 159.25 29.0117C159.625 28.6875 160.076 28.4316 160.604 28.2441C161.135 28.0566 161.73 27.9629 162.391 27.9629C163.051 27.9629 163.645 28.0566 164.172 28.2441C164.703 28.4316 165.154 28.6875 165.525 29.0117C165.9 29.3359 166.188 29.7148 166.387 30.1484C166.59 30.582 166.691 31.0469 166.691 31.543C166.691 32.0391 166.59 32.5039 166.387 32.9375C166.188 33.3711 165.9 33.75 165.525 34.0742C165.154 34.3984 164.703 34.6543 164.172 34.8418C163.645 35.0293 163.051 35.123 162.391 35.123C161.73 35.123 161.135 35.0293 160.604 34.8418C160.076 34.6543 159.625 34.3984 159.25 34.0742C158.879 33.75 158.592 33.3711 158.389 32.9375C158.189 32.5039 158.09 32.0391 158.09 31.543ZM159.912 31.543C159.912 31.8203 159.967 32.084 160.076 32.334C160.189 32.5801 160.352 32.7988 160.562 32.9902C160.777 33.1777 161.037 33.3281 161.342 33.4414C161.65 33.5508 162 33.6055 162.391 33.6055C162.781 33.6055 163.129 33.5508 163.434 33.4414C163.742 33.3281 164.002 33.1777 164.213 32.9902C164.428 32.7988 164.59 32.5801 164.699 32.334C164.812 32.084 164.869 31.8203 164.869 31.543C164.869 31.2656 164.812 31.002 164.699 30.752C164.59 30.502 164.428 30.2832 164.213 30.0957C164.002 29.9043 163.742 29.7539 163.434 29.6445C163.129 29.5312 162.781 29.4746 162.391 29.4746C162 29.4746 161.65 29.5312 161.342 29.6445C161.037 29.7539 160.777 29.9043 160.562 30.0957C160.352 30.2832 160.189 30.502 160.076 30.752C159.967 31.002 159.912 31.2656 159.912 31.543Z" fill="black"/>
<path d="M168.443 28.0859H170.178V28.6719C170.639 28.4102 171.078 28.2266 171.496 28.1211C171.918 28.0156 172.33 27.9629 172.732 27.9629C173.26 27.9629 173.748 28.041 174.197 28.1973C174.646 28.3496 175.035 28.5781 175.363 28.8828C175.691 29.1875 175.947 29.5684 176.131 30.0254C176.318 30.4785 176.412 31.0039 176.412 31.6016V35H174.684V31.8828C174.684 31.5039 174.629 31.166 174.52 30.8691C174.414 30.5684 174.26 30.3164 174.057 30.1133C173.857 29.9062 173.613 29.75 173.324 29.6445C173.039 29.5352 172.719 29.4805 172.363 29.4805C172.176 29.4805 171.982 29.5 171.783 29.5391C171.588 29.5781 171.395 29.6348 171.203 29.709C171.016 29.7793 170.834 29.8691 170.658 29.9785C170.482 30.084 170.322 30.2051 170.178 30.3418V35H168.443V28.0859Z" fill="black"/>
<path d="M178.82 32.8789C179.289 33.1602 179.805 33.3672 180.367 33.5C180.93 33.6328 181.506 33.6992 182.096 33.6992C182.494 33.6992 182.826 33.6719 183.092 33.6172C183.357 33.5625 183.57 33.4922 183.73 33.4062C183.891 33.3203 184.004 33.2227 184.07 33.1133C184.137 33.0039 184.17 32.8926 184.17 32.7793C184.17 32.6152 184.098 32.4746 183.953 32.3574C183.812 32.2402 183.578 32.1816 183.25 32.1816C183.098 32.1816 182.934 32.1914 182.758 32.2109C182.582 32.2305 182.396 32.252 182.201 32.2754C182.01 32.2949 181.809 32.3145 181.598 32.334C181.391 32.3535 181.18 32.3633 180.965 32.3633C180.496 32.3633 180.096 32.3125 179.764 32.2109C179.436 32.1094 179.168 31.9707 178.961 31.7949C178.754 31.6191 178.604 31.4121 178.51 31.1738C178.416 30.9316 178.369 30.6719 178.369 30.3945C178.369 30.043 178.451 29.7188 178.615 29.4219C178.779 29.125 179.014 28.8691 179.318 28.6543C179.623 28.4355 179.99 28.2656 180.42 28.1445C180.854 28.0234 181.336 27.9629 181.867 27.9629C182.145 27.9629 182.434 27.9805 182.734 28.0156C183.039 28.0469 183.338 28.0898 183.631 28.1445C183.924 28.1992 184.205 28.2637 184.475 28.3379C184.744 28.4082 184.982 28.4844 185.189 28.5664L184.645 29.9141C184.203 29.75 183.762 29.6211 183.32 29.5273C182.883 29.4297 182.432 29.3809 181.967 29.3809C181.643 29.3809 181.367 29.4062 181.141 29.457C180.918 29.5039 180.736 29.5684 180.596 29.6504C180.455 29.7285 180.352 29.8203 180.285 29.9258C180.223 30.0273 180.191 30.1348 180.191 30.248C180.191 30.3301 180.207 30.4043 180.238 30.4707C180.273 30.5371 180.328 30.5957 180.402 30.6465C180.48 30.6934 180.58 30.7305 180.701 30.7578C180.826 30.7812 180.979 30.793 181.158 30.793C181.322 30.793 181.496 30.7832 181.68 30.7637C181.863 30.7441 182.055 30.7246 182.254 30.7051C182.453 30.6816 182.658 30.6602 182.869 30.6406C183.084 30.6211 183.303 30.6113 183.525 30.6113C183.939 30.6113 184.301 30.6602 184.609 30.7578C184.922 30.8555 185.18 30.9922 185.383 31.168C185.586 31.3438 185.738 31.5508 185.84 31.7891C185.941 32.0273 185.992 32.2871 185.992 32.5684C185.992 32.9316 185.908 33.2695 185.74 33.582C185.572 33.8945 185.322 34.166 184.99 34.3965C184.658 34.623 184.244 34.8008 183.748 34.9297C183.256 35.0586 182.686 35.123 182.037 35.123C181.639 35.123 181.254 35.0977 180.883 35.0469C180.512 35 180.158 34.9355 179.822 34.8535C179.486 34.7676 179.17 34.668 178.873 34.5547C178.58 34.4414 178.312 34.3203 178.07 34.1914L178.82 32.8789Z" fill="black"/>
</svg>
